# xmcd
#
# Track frame offsets: 
#        150
#        13031
#        27830
#        42976
#        58631
#        73013
#        87054
#        100483
#        114705
#        127680
#        142327
#        156474
#        168180
#        181742
#        192746
#        204975
#        216046
#        227065
#        240142
#        253095
#        267942
#        281876
#        293342
#
# Disc length: 4085 seconds
#
# Revision: 2
# Processed by: cddbd v1.5.2PL0 Copyright (c) Steve Scherf et al.
# Submitted via: ExactAudioCopy v0.95b4
#
DISCID=4c0ff317
DTITLE=Various Artist - It Don't Mean A Thing [CD 2)
DYEAR=1900
DGENRE=Jazz
TTITLE0=Let's Have A Jubilee
TTITLE1=I've Got The World On A String
TTITLE2=My Old Flame
TTITLE3=Troubled Waters
TTITLE4=It Don't Mean A Thing
TTITLE5=Cotton
TTITLE6=Truckin'
TTITLE7=Isn't Love The Strangest Thing
TTITLE8=Oh Babe! Maybe Someday
TTITLE9=Shoe Shine Boy
TTITLE10=It Was A Sad Night In Harlem
TTITLE11=I've Got To Be A Rug Cutter
TTITLE12=There's A Lull In My Life
TTITLE13=All God's Chillun Got Rhythm
TTITLE14=Alabamy Home
TTITLE15=I'm Checkin' Out, Goo'm Bye
TTITLE16=Killin' Myself
TTITLE17=Me And You
TTITLE18=Chocolate Shake
TTITLE19=I Got It Bad And That Ain't Good
TTITLE20=Rocks In My Bed
TTITLE21=Hayfoot, Strawfoot
TTITLE22=Jump For Joy
EXTD=
EXTT0=
EXTT1=
EXTT2=
EXTT3=
EXTT4=
EXTT5=
EXTT6=
EXTT7=
EXTT8=
EXTT9=
EXTT10=
EXTT11=
EXTT12=
EXTT13=
EXTT14=
EXTT15=
EXTT16=
EXTT17=
EXTT18=
EXTT19=
EXTT20=
EXTT21=
EXTT22=
PLAYORDER=
